<?xml version="1.0" encoding="utf-8"?>
<!-- Generator: Adobe Illustrator 19.2.1, SVG Export Plug-In . SVG Version: 6.00 Build 0)  -->
<svg version="1.1" id="layer" xmlns="http://www.w3.org/2000/svg" xmlns:xlink="http://www.w3.org/1999/xlink" x="0px" y="0px"
	 viewBox="0 0 652 652" style="enable-background:new 0 0 652 652;" xml:space="preserve">
<style type="text/css">
	.st0{fill:#408E81;}
	.st1{fill:#FEDF00;}
</style>
<rect x="20.1" y="173.9" class="st0" width="600" height="296.7"/>
<g>
	<path class="st1" d="M180.4,437.5c-7.5-42,2.7-68.3,2.7-68.3s-28.6-14.5-36.5-37.7c-7.8-23.1,8.6-47.9,8.6-47.9s40.4,12.6,33,71.8
		c0,0,10.2-24.3,25.9-38.4c0,0-20.4-26.3-21.6-51c-1.2-24.7,22-43.6,22-43.6s36.1,26.3,3.5,91.4c0,0,22-18.8,31.4-22
		c0,0-6-30-1.6-51c5.9-28.3,35.7-37.7,35.7-37.7s20.8,34.1-20.8,83.2c0,0,42.3-23.6,68.7-19.2c28.6,4.7,31,30.6,31,30.6
		s-38.4,33.7-83.2-14.5c0,0-16.1,6.7-20,10.6c0,0,30.2,4.3,45.9,20.8c15.7,16.5,6.3,44.7,6.3,44.7s-49,5.5-57.7-62.8
		c0,0-30.6,20.4-32.2,25.5c0,0,36.3,5.3,47.1,21.6c16.9,25.5,5.1,42,5.1,42s-44.7,9.8-56.1-59.6c0,0-19.2,22.4-27.1,43.9
		c0,0,31-6.3,51.8,11.8c20.8,18.1,13.7,39.2,13.7,39.2s-39.6,19.6-68.3-43.2c0,0-2.4,27.5-1.2,35.7c0,0,21.9-0.1,29,7.1
		c9,9,6.7,20.4,6.7,20.4s-21.6,8.6-36.5-23.1c0,0,1.6,12.2,2.4,14.5L180.4,437.5z"/>
</g>
<rect x="328.7" y="376.7" class="st1" width="3.2" height="15.8"/>
<polygon class="st1" points="335.1,376.7 339,376.7 345,388.5 345.1,388.5 345.1,376.7 348.1,376.7 348.1,392.5 344.2,392.5 
	338.2,380.7 338.1,380.7 338.1,392.5 335.1,392.5 "/>
<polygon class="st1" points="354.5,379.2 349.9,379.2 349.9,376.7 362.2,376.7 362.2,379.2 357.6,379.2 357.6,392.5 354.5,392.5 "/>
<polygon class="st1" points="364.2,376.7 373.5,376.7 373.5,379.2 367.4,379.2 367.4,383.1 373,383.1 373,385.6 367.4,385.6 
	367.4,390 373.6,390 373.6,392.5 364.2,392.5 "/>
<g>
	<path class="st1" d="M379.7,383.4h1c1.6,0,3.3-0.2,3.3-2.2c0-1.9-1.8-2.1-3.3-2.1h-1V383.4z M376.5,376.7h3.4
		c3.4,0,7.4-0.1,7.4,4.3c0,1.9-1.2,3.4-3.3,3.7v0c0.9,0.1,1.4,0.9,1.7,1.6l2.5,6.2h-3.5l-1.9-4.9c-0.5-1.2-0.9-1.6-2.2-1.6h-1v6.6
		h-3.2V376.7z"/>
</g>
<polygon class="st1" points="390.4,376.7 394.3,376.7 400.4,388.5 400.4,388.5 400.4,376.7 403.4,376.7 403.4,392.5 399.6,392.5 
	393.5,380.7 393.5,380.7 393.5,392.5 390.4,392.5 "/>
<path class="st1" d="M413.2,379.9L413.2,379.9l-2.3,6.5h4.6L413.2,379.9z M411.5,376.7h3.6l6.2,15.8h-3.5l-1.4-3.6H410l-1.4,3.6
	h-3.3L411.5,376.7z"/>
<polygon class="st1" points="424.3,379.2 419.8,379.2 419.8,376.7 432,376.7 432,379.2 427.5,379.2 427.5,392.5 424.3,392.5 "/>
<rect x="433.8" y="376.7" class="st1" width="3.2" height="15.8"/>
<g>
	<path class="st1" d="M447.3,390.3c3.2,0,4.4-2.9,4.4-5.7c0-2.8-1.3-5.6-4.4-5.6c-3.1,0-4.4,2.8-4.4,5.6
		C442.9,387.4,444.1,390.3,447.3,390.3 M447.3,376.4c5,0,7.7,3.4,7.7,8.1c0,4.8-2.7,8.2-7.7,8.2c-5.1,0-7.7-3.4-7.7-8.2
		C439.6,379.7,442.3,376.4,447.3,376.4"/>
</g>
<polygon class="st1" points="457.8,376.7 461.7,376.7 467.7,388.5 467.8,388.5 467.8,376.7 470.8,376.7 470.8,392.5 466.9,392.5 
	460.9,380.7 460.8,380.7 460.8,392.5 457.8,392.5 "/>
<path class="st1" d="M480.6,379.9L480.6,379.9l-2.3,6.5h4.6L480.6,379.9z M478.8,376.7h3.6l6.2,15.8h-3.5l-1.4-3.6h-6.4l-1.4,3.6
	h-3.3L478.8,376.7z"/>
<polygon class="st1" points="490.6,376.7 493.8,376.7 493.8,390 499.9,390 499.9,392.5 490.6,392.5 "/>
<g>
	<path class="st1" d="M342.1,409.9h1.1c1.6,0,3-0.5,3-2.4c0-1.8-1.4-2.5-3-2.5h-1.1V409.9z M338.9,402.6h4c3.4,0,6.6,1,6.6,4.8
		c0,3.7-2.7,5-6.1,5h-1.3v6h-3.2V402.6z"/>
</g>
<polygon class="st1" points="351.8,402.6 361.1,402.6 361.1,405.1 354.9,405.1 354.9,409 360.6,409 360.6,411.5 354.9,411.5 
	354.9,415.9 361.1,415.9 361.1,418.4 351.8,418.4 "/>
<path class="st1" d="M370.6,405.7L370.6,405.7l-2.3,6.5h4.6L370.6,405.7z M368.9,402.6h3.6l6.2,15.8h-3.5l-1.4-3.6h-6.4l-1.4,3.6
	h-3.3L368.9,402.6z"/>
<g>
	<path class="st1" d="M392.2,418.1c-1.2,0.3-2.4,0.5-3.6,0.5c-5.1,0-8.7-2.6-8.7-7.9c0-5.4,3.3-8.4,8.7-8.4c1,0,2.4,0.2,3.6,0.7
		l-0.2,2.7c-1.2-0.7-2.3-0.8-3.4-0.8c-3.3,0-5.3,2.5-5.3,5.7c0,3.2,2,5.6,5.4,5.6c1.2,0,2.7-0.3,3.5-0.7L392.2,418.1z"/>
</g>
<polygon class="st1" points="394.5,402.6 403.8,402.6 403.8,405.1 397.7,405.1 397.7,409 403.3,409 403.3,411.5 397.7,411.5 
	397.7,415.9 403.9,415.9 403.9,418.4 394.5,418.4 "/>
<g>
	<path class="st1" d="M416.5,415.9h1.5c1.5,0,3.3-0.4,3.3-2.2c0-2.1-1.7-2.4-3.3-2.4h-1.5V415.9z M416.5,409h1.3c1.3,0,3-0.3,3-1.9
		c0-1.8-1.6-2-3.1-2h-1.2V409z M413.4,402.6h5.5c2,0,5.1,0.6,5.1,4.1c0,1.9-1.3,3.2-3.1,3.5v0c2.1,0.2,3.6,1.6,3.6,3.6
		c0,4-3.6,4.6-5.6,4.6h-5.5V402.6z"/>
	<path class="st1" d="M427.1,402.6h3.2v9.1c0,2.7,0.9,4.5,3.3,4.5c2.4,0,3.3-1.8,3.3-4.5v-9.1h3.2v10.1c0,4.2-2.4,6-6.5,6
		c-4.1,0-6.5-1.7-6.5-6V402.6z"/>
	<path class="st1" d="M446.4,409.3h1c1.6,0,3.3-0.2,3.3-2.2c0-1.9-1.8-2.1-3.3-2.1h-1V409.3z M443.3,402.6h3.4
		c3.4,0,7.4-0.1,7.4,4.3c0,1.9-1.2,3.4-3.3,3.7v0c0.9,0.1,1.4,0.9,1.7,1.6l2.5,6.2h-3.5l-1.9-4.9c-0.5-1.2-0.9-1.6-2.2-1.6h-1v6.6
		h-3.2V402.6z"/>
</g>
<polygon class="st1" points="457.4,402.6 466.7,402.6 466.7,405.1 460.5,405.1 460.5,409 466.2,409 466.2,411.5 460.5,411.5 
	460.5,415.9 466.7,415.9 466.7,418.4 457.4,418.4 "/>
<path class="st1" d="M476.2,405.7L476.2,405.7l-2.3,6.5h4.6L476.2,405.7z M474.5,402.6h3.6l6.2,15.8h-3.5l-1.4-3.6H473l-1.4,3.6
	h-3.3L474.5,402.6z"/>
<g>
	<path class="st1" d="M486.2,402.6h3.2v9.1c0,2.7,0.9,4.5,3.3,4.5c2.4,0,3.3-1.8,3.3-4.5v-9.1h3.2v10.1c0,4.2-2.4,6-6.5,6
		c-4.1,0-6.5-1.7-6.5-6V402.6z"/>
</g>
<rect x="380.4" y="273.5" class="st1" width="13.4" height="51.3"/>
<g>
	<path class="st1" d="M419.5,297.4h9c4.2,0,7.2-1.7,7.2-6.4c0-4.8-3.1-6.8-7.2-6.8h-9V297.4z M406.1,273.5h24.3
		c9.5,0,18.5,4.4,18.5,16.5c0,12.7-7.3,17.7-18.5,17.7h-11v17.1h-13.4V273.5z"/>
	<path class="st1" d="M468.7,314.1h10.7c4.2,0,7.2-1.5,7.2-5.7c0-4.5-3.2-6-7.2-6h-10.7V314.1z M468.7,293.7H479
		c2.3,0,5.5-1.2,5.5-4.9c0-3.7-2.7-5-5.5-5h-10.3V293.7z M455.3,273.5h24c8.8-0.1,18.5,2.2,18.5,12.9c0,4.6-2.7,8.3-6.8,10.3
		c5.5,1.6,8.8,6.3,8.8,12.1c0,12.2-9,15.9-20,15.9h-24.6V273.5z"/>
</g>
</svg>
